<?xml version="1.0" encoding="utf-8"?>
<!-- Generator: Adobe Illustrator 19.2.1, SVG Export Plug-In . SVG Version: 6.00 Build 0)  -->
<svg version="1.1" xmlns="http://www.w3.org/2000/svg" xmlns:xlink="http://www.w3.org/1999/xlink" x="0px" y="0px"
	 viewBox="0 0 210 210" style="enable-background:new 0 0 210 210;" xml:space="preserve">
<style type="text/css">
	.st0{fill:#E2181B;}
	.st1{fill:#FFFFFF;}
	.st2{fill:#2B2523;}
	.st3{fill:#F4A500;}
	.st4{fill:#28A3DD;}
	.st5{fill:#3C56A2;}
	.st6{fill:#F6C1DA;}
	.st7{fill-rule:evenodd;clip-rule:evenodd;fill:#FEE800;}
	.st8{fill:#FCE01D;}
	.st9{fill:#F6CA0C;stroke:#000000;stroke-width:0.5;}
	.st10{fill:#B37826;stroke:#000000;stroke-width:0.5;}
	.st11{fill:#009240;stroke:#000000;stroke-width:0.5;}
	.st12{fill:none;stroke:#61BFE7;stroke-width:5;}
	.st13{fill:none;stroke:#61BFE7;stroke-width:5;stroke-miterlimit:10;}
</style>
<g id="Layer_1">
	<path id="XMLID_1689_" class="st0" d="M30,144.9c2.9,0,2.3,5.1,5,5.1c3.2,0,2-4.7,4.7-4.7c2.7,0,3.3,4.7,6.1,4.7
		c1.6,0,1.8-2,1.8-3.7c0-2.7,0-7.5,0-18.8c0-9.7-7.9-17.6-17.6-17.6s-17.6,7.9-17.6,17.6c0,11.3,0,16.1,0,18.8
		c0,1.6,0.1,3.7,1.8,3.7c2.8,0,3.4-4.7,6.1-4.7s1.5,4.7,4.7,4.7C27.7,150,27.1,144.9,30,144.9z"/>
	<circle id="XMLID_1688_" class="st1" cx="26.2" cy="127" r="4.8"/>
	<circle id="XMLID_1687_" class="st1" cx="40.6" cy="127" r="4.8"/>
	<circle id="XMLID_1150_" class="st2" cx="27.3" cy="128.3" r="2.6"/>
	<circle id="XMLID_1149_" class="st2" cx="41.7" cy="128.3" r="2.6"/>
	<path id="XMLID_1147_" class="st3" d="M130,144.9c2.9,0,2.3,5.1,5,5.1c3.2,0,2-4.7,4.7-4.7c2.7,0,3.3,4.7,6.1,4.7
		c1.6,0,1.8-2,1.8-3.7c0-2.7,0-7.5,0-18.8c0-9.7-7.9-17.6-17.6-17.6c-9.7,0-17.6,7.9-17.6,17.6c0,11.3,0,16.1,0,18.8
		c0,1.6,0.1,3.7,1.8,3.7c2.8,0,3.4-4.7,6.1-4.7c2.7,0,1.5,4.7,4.7,4.7C127.7,150,127.1,144.9,130,144.9z"/>
	<circle id="XMLID_1142_" class="st1" cx="126.2" cy="127" r="4.8"/>
	<circle id="XMLID_1141_" class="st1" cx="140.6" cy="127" r="4.8"/>
	<circle id="XMLID_1131_" class="st2" cx="127.3" cy="128.3" r="2.6"/>
	<circle id="XMLID_1129_" class="st2" cx="141.7" cy="128.3" r="2.6"/>
	<path id="XMLID_1087_" class="st4" d="M80,144.9c2.9,0,2.3,5.1,5,5.1c3.2,0,2-4.7,4.7-4.7c2.7,0,3.3,4.7,6.1,4.7
		c1.6,0,1.8-2,1.8-3.7c0-2.7,0-7.5,0-18.8c0-9.7-7.9-17.6-17.6-17.6s-17.6,7.9-17.6,17.6c0,11.3,0,16.1,0,18.8
		c0,1.6,0.1,3.7,1.8,3.7c2.8,0,3.4-4.7,6.1-4.7s1.5,4.7,4.7,4.7C77.7,150,77.1,144.9,80,144.9z"/>
	<path id="XMLID_7_" class="st5" d="M30,94.9c2.9,0,2.3,5.1,5,5.1c3.2,0,2-4.7,4.7-4.7c2.7,0,3.3,4.7,6.1,4.7c1.6,0,1.8-2,1.8-3.7
		c0-2.7,0-7.5,0-18.8C47.6,67.9,39.7,60,30,60s-17.6,7.9-17.6,17.6c0,11.3,0,16.1,0,18.8c0,1.6,0.1,3.7,1.8,3.7
		c2.8,0,3.4-4.7,6.1-4.7s1.5,4.7,4.7,4.7C27.7,100,27.1,94.9,30,94.9z"/>
	<circle id="XMLID_4_" class="st1" cx="26.2" cy="77" r="4.8"/>
	<circle id="XMLID_3_" class="st1" cx="40.6" cy="77" r="4.8"/>
	<circle id="XMLID_2_" class="st2" cx="27.3" cy="75.8" r="2.6"/>
	<circle id="XMLID_1_" class="st2" cx="40" cy="78.6" r="2.6"/>
	<path id="XMLID_111_" class="st6" d="M180,144.9c2.9,0,2.3,5.1,5,5.1c3.2,0,2-4.7,4.7-4.7c2.7,0,3.3,4.7,6.1,4.7
		c1.6,0,1.8-2,1.8-3.7c0-2.7,0-7.5,0-18.8c0-9.7-7.9-17.6-17.6-17.6c-9.7,0-17.6,7.9-17.6,17.6c0,11.3,0,16.1,0,18.8
		c0,1.6,0.1,3.7,1.8,3.7c2.8,0,3.4-4.7,6.1-4.7c2.7,0,1.5,4.7,4.7,4.7C177.7,150,177.1,144.9,180,144.9z"/>
	<circle id="XMLID_110_" class="st1" cx="176.2" cy="127" r="4.8"/>
	<circle id="XMLID_109_" class="st1" cx="190.6" cy="127" r="4.8"/>
	<circle id="XMLID_75_" class="st2" cx="177.3" cy="128.3" r="2.6"/>
	<circle id="XMLID_67_" class="st2" cx="191.7" cy="128.3" r="2.6"/>
	<circle id="XMLID_15_" class="st1" cx="76.2" cy="127" r="4.8"/>
	<circle id="XMLID_14_" class="st1" cx="90.6" cy="127" r="4.8"/>
	<circle id="XMLID_12_" class="st2" cx="77.3" cy="128.3" r="2.6"/>
	<circle id="XMLID_11_" class="st2" cx="91.7" cy="128.3" r="2.6"/>
	<path class="st7" d="M130.2,180l19.7-3.5c-1.7-9.5-10-16.5-19.7-16.5c-11,0-20,9-20,20s9,20,20,20c9.7,0,18-7,19.7-16.5L130.2,180z
		"/>
	<circle class="st7" cx="180" cy="180" r="20"/>
	<path class="st7" d="M80.6,180l18.8-6.8C96.5,165.3,89,160,80.6,160c-11,0-20,9-20,20s9,20,20,20c8.4,0,15.9-5.3,18.8-13.2
		L80.6,180z"/>
	<path class="st7" d="M31.3,180l17.3-10c-3.6-6.2-10.2-10-17.3-10c-11,0-20,9-20,20s9,20,20,20c7.1,0,13.8-3.8,17.3-10L31.3,180z"/>
	<circle class="st8" cx="130" cy="80" r="5"/>
	<g>
		<path class="st9" d="M71.4,74.4c-2,0.6-3.3,1.8-3.7,2.9c-0.4,1-0.2,6.6,0.2,7.9c0.5,1.3,3.4,4.8,5.2,5.7c1.8,0.9,7.3,1.8,9.5,1.2
			c2.2-0.6,4.2-1.5,5.9-2.9c1.7-1.4,3.3-3.8,3.7-6c0.4-2.2,0.6-4.2-0.6-5.9c-1.2-1.7-1.9-2.4-3.8-3.2c-1.9-0.8-4.6-0.5-6.4,0.2
			c-1.8,0.7-3.5,0.2-5.4-0.2C74.9,73.8,74.4,73.5,71.4,74.4z"/>
		<path class="st10" d="M80.2,69.2c-0.4-1-2.2,0.7-2.4,1.1c-0.2,0.4-0.2,3.5-0.2,3.5s-1.5,0-1.8,0.7c-0.3,0.7,1.6,2.6,2.6,2.5
			c1-0.1,2.8-0.4,3.2-1.8c0.4-1.4-1.3-1.1-1.8-1.7C79.3,72.9,80.7,70.3,80.2,69.2z"/>
		<path class="st11" d="M82.6,67.9c-1,0.3-1.1,1.3-1.4,2.2c-0.3,0.9-1.8,0.9-1.9,2.1c-0.1,1.2,0.5,1.4,1.4,1.4s0.4-1.1,1.3-0.8
			c0.9,0.3-0.4,1.1,0.2,1.3c0.6,0.2,4.5,0.3,5.6-0.1c1.1-0.4,1.2-1.4,1.2-1.4s0.7,1.5,1.7,1.4c1-0.1,1-0.2,0.8-1.1
			c-0.2-1-1-1.8-1.3-2.6c-0.3-0.8-3.3-0.1-3.7-0.2C86.1,70,86,68.5,85,68C83.9,67.6,82.6,67.9,82.6,67.9z"/>
	</g>
</g>
<g id="Layer_2">
	<line class="st12" x1="10" y1="12.5" x2="50" y2="12.5"/>
	<line class="st12" x1="160" y1="12.5" x2="200" y2="12.5"/>
	<line class="st12" x1="10" y1="47.5" x2="50" y2="47.5"/>
	<path class="st12" d="M111.3,12.5h30c4.1,0,7.5,3.9,7.5,8.8v17.5c0,4.8-3.4,8.8-7.5,8.8h-30"/>
	<path class="st13" d="M98.8,50V18.7c0-3.5-2.8-6.2-6.3-6.2H61.3"/>
	<path class="st13" d="M61.3,47.5h2.5c1.4,0,2.5,1.1,2.5,2.5"/>
	<path class="st13" d="M160,47.5h2.5c1.4,0,2.5,1.1,2.5,2.5"/>
	<path class="st13" d="M200,47.5h-2.5c-1.4,0-2.5,1.1-2.5,2.5"/>
</g>
</svg>
