<?xml version="1.0" encoding="utf-8"?>
<!-- Generator: Adobe Illustrator 19.2.1, SVG Export Plug-In . SVG Version: 6.00 Build 0)  -->
<svg version="1.1" id="Layer_1" xmlns="http://www.w3.org/2000/svg" xmlns:xlink="http://www.w3.org/1999/xlink" x="0px" y="0px"
	 viewBox="0 0 539 309" style="enable-background:new 0 0 539 309;" xml:space="preserve">
<style type="text/css">
	.st0{fill:#FFFFFF;}
	.st1{fill:url(#SVGID_1_);}
	.st2{fill:#D5D5D5;}
	.st3{fill:#AAAAAA;}
	.st4{fill:#FFD948;}
	.st5{fill:url(#SVGID_2_);}
	.st6{fill:#CDA400;}
	.st7{fill:#A88600;}
	.st8{fill:#88E060;}
	.st9{fill:url(#SVGID_3_);}
	.st10{fill:#5FB13A;}
	.st11{fill:#47832C;}
	.st12{fill:#FA8132;}
	.st13{fill:url(#SVGID_4_);}
	.st14{fill:#CD5D12;}
	.st15{fill:#AA4E11;}
	.st16{fill:#35BAF3;}
	.st17{fill:url(#SVGID_5_);}
	.st18{fill:#1989B8;}
	.st19{fill:#166E93;}
	.st20{fill:url(#SVGID_6_);}
	.st21{fill:url(#SVGID_7_);}
	.st22{fill:url(#SVGID_8_);}
	.st23{fill:url(#SVGID_9_);}
	.st24{fill:url(#SVGID_10_);}
	.st25{fill:url(#SVGID_11_);}
	.st26{fill:url(#SVGID_12_);}
	.st27{fill:url(#SVGID_13_);}
	.st28{fill:url(#SVGID_14_);}
	.st29{fill:url(#SVGID_15_);}
	.st30{fill:url(#SVGID_16_);}
	.st31{fill:url(#SVGID_17_);}
	.st32{fill:url(#SVGID_18_);}
	.st33{fill:url(#SVGID_19_);}
	.st34{fill:url(#SVGID_20_);}
</style>
<path class="st0" d="M197.9,15l0.1,1v33c0,2.7-1.3,4-4,4H16c-2.7,0-4-1.3-4-4V16l0.1-1c0.3-2,1.6-3,3.9-3h178
	C196.3,12,197.7,13,197.9,15 M196,16l-0.1-0.7l0.1,0.1c-0.2-0.9-0.9-1.4-2-1.4H16c-1.1,0-1.7,0.4-1.9,1.3l0,0.2L14,16v33
	c0,1.3,0.7,2,2,2h178c1.3,0,2-0.7,2-2V16"/>
<linearGradient id="SVGID_1_" gradientUnits="userSpaceOnUse" x1="8395.2656" y1="-44771.1875" x2="10033.666" y2="-44771.1875" gradientTransform="matrix(0 2.502441e-002 2.258301e-002 0 1116.0681 -198.0866)">
	<stop  offset="0" style="stop-color:#FFFFFF"/>
	<stop  offset="1" style="stop-color:#EEEEEE"/>
</linearGradient>
<path class="st1" d="M196,16v33c0,1.3-0.7,2-2,2H16c-1.3,0-2-0.7-2-2V16l0.1-0.5l0-0.2c0.2-0.9,0.8-1.3,1.9-1.3h178
	c1.1,0,1.8,0.4,2,1.4l-0.1-0.1L196,16"/>
<path class="st2" d="M197.9,15c-0.3-2-1.6-3-3.9-3H16c-2.3,0-3.6,1-3.9,3L12,16v33c0,2.7,1.3,4,4,4h178c2.7,0,4-1.3,4-4V16L197.9,15
	 M10,49.3V16c0-4,2-6,6-6h178c4,0,6,2,6,6v33.3c-0.1,3.8-2.1,5.8-6,5.8H16C12.1,55,10.1,53.1,10,49.3"/>
<path class="st3" d="M10,49.3c0.1,3.8,2.1,5.8,6,5.8h178c3.9,0,5.9-1.9,6-5.8V53c0,4-2,6-6,6H16c-4,0-6-2-6-6V49.3"/>
<path class="st4" d="M197.9,75.1L198,76v33c0,2.7-1.3,4-4,4H16c-2.7,0-4-1.3-4-4V76l0.1-0.9c0.3-2,1.6-3.1,3.9-3.1h178
	C196.3,72,197.7,73,197.9,75.1 M196,76l-0.1-0.7l0.1,0c-0.2-0.9-0.9-1.3-2-1.3H16c-1.1,0-1.7,0.4-1.9,1.3l0,0.2L14,76v33
	c0,1.3,0.7,2,2,2h178c1.3,0,2-0.7,2-2V76"/>
<linearGradient id="SVGID_2_" gradientUnits="userSpaceOnUse" x1="8395.2656" y1="-44771.1875" x2="10033.666" y2="-44771.1875" gradientTransform="matrix(0 2.502441e-002 2.258301e-002 0 1116.0681 -138.0866)">
	<stop  offset="0" style="stop-color:#FFD948"/>
	<stop  offset="1" style="stop-color:#FFCC00"/>
</linearGradient>
<path class="st5" d="M196,76v33c0,1.3-0.7,2-2,2H16c-1.3,0-2-0.7-2-2V76l0.1-0.5l0-0.2c0.2-0.9,0.8-1.3,1.9-1.3h178
	c1.1,0,1.8,0.5,2,1.3l-0.1,0L196,76"/>
<path class="st6" d="M197.9,75.1c-0.3-2-1.6-3.1-3.9-3.1H16c-2.3,0-3.6,1-3.9,3.1L12,76v33c0,2.7,1.3,4,4,4h178c2.7,0,4-1.3,4-4V76
	L197.9,75.1 M10,109.3V76c0-4,2-6,6-6h178c4,0,6,2,6,6v33.3c-0.1,3.8-2.1,5.8-6,5.8H16C12.1,115,10.1,113.1,10,109.3"/>
<path class="st7" d="M10,109.3c0.1,3.8,2.1,5.8,6,5.8h178c3.9,0,5.9-1.9,6-5.8v3.8c0,4-2,6-6,6H16c-4,0-6-2-6-6V109.3"/>
<path class="st8" d="M197.9,135.1l0.1,0.9v33c0,2.7-1.3,4-4,4H16c-2.7,0-4-1.3-4-4v-33l0.1-0.9c0.3-2,1.6-3.1,3.9-3.1h178
	C196.3,132,197.7,133,197.9,135.1 M196,136l-0.1-0.7l0.1,0.1c-0.2-0.9-0.9-1.4-2-1.4H16c-1.1,0-1.7,0.4-1.9,1.3l0,0.2L14,136v33
	c0,1.3,0.7,2,2,2h178c1.3,0,2-0.7,2-2V136"/>
<linearGradient id="SVGID_3_" gradientUnits="userSpaceOnUse" x1="8395.2656" y1="-44771.1875" x2="10033.666" y2="-44771.1875" gradientTransform="matrix(0 2.502441e-002 2.258301e-002 0 1116.0681 -78.0866)">
	<stop  offset="0" style="stop-color:#88E060"/>
	<stop  offset="1" style="stop-color:#73CD4B"/>
</linearGradient>
<path class="st9" d="M196,136v33c0,1.3-0.7,2-2,2H16c-1.3,0-2-0.7-2-2v-33l0.1-0.5l0-0.2c0.2-0.9,0.8-1.3,1.9-1.3h178
	c1.1,0,1.8,0.4,2,1.4l-0.1-0.1L196,136"/>
<path class="st10" d="M197.9,135.1c-0.3-2-1.6-3.1-3.9-3.1H16c-2.3,0-3.6,1-3.9,3.1L12,136v33c0,2.7,1.3,4,4,4h178c2.7,0,4-1.3,4-4
	v-33L197.9,135.1 M10,169.3V136c0-4,2-6,6-6h178c4,0,6,2,6,6v33.3c-0.1,3.8-2.1,5.8-6,5.8H16C12.1,175,10.1,173.1,10,169.3"/>
<path class="st11" d="M10,169.3c0.1,3.8,2.1,5.8,6,5.8h178c3.9,0,5.9-1.9,6-5.8v3.8c0,4-2,6-6,6H16c-4,0-6-2-6-6V169.3"/>
<path class="st12" d="M14.3,194.7l-0.1,0.1l-0.2,0.6l0,0.1L14,196v33c0,1.3,0.7,2,2,2h178c1.3,0,2-0.7,2-2v-33l-0.1-0.7l0.1,0.1
	l-0.2-0.6c-0.3-0.5-0.9-0.8-1.8-0.8H16C15.1,194,14.6,194.2,14.3,194.7 M12,196l0.1-0.9l0.3-1.1c0.5-1.3,1.7-2,3.6-2h178
	c1.9,0,3.1,0.7,3.7,2l0.3,1.1l0.1,0.9v33c0,2.7-1.3,4-4,4H16c-2.7,0-4-1.3-4-4V196"/>
<linearGradient id="SVGID_4_" gradientUnits="userSpaceOnUse" x1="8395.2656" y1="-44771.1875" x2="10033.666" y2="-44771.1875" gradientTransform="matrix(0 2.502441e-002 2.258301e-002 0 1116.0681 -18.0866)">
	<stop  offset="0" style="stop-color:#FA8132"/>
	<stop  offset="1" style="stop-color:#E86A17"/>
</linearGradient>
<path class="st13" d="M14.3,194.7c0.3-0.5,0.8-0.7,1.7-0.7h178c0.9,0,1.5,0.3,1.8,0.8l0.2,0.6l-0.1-0.1l0.1,0.7v33c0,1.3-0.7,2-2,2
	H16c-1.3,0-2-0.7-2-2v-33l0.1-0.5l0-0.1l0.2-0.6L14.3,194.7"/>
<path class="st14" d="M12,196v33c0,2.7,1.3,4,4,4h178c2.7,0,4-1.3,4-4v-33l-0.1-0.9l-0.3-1.1c-0.6-1.3-1.8-2-3.7-2H16
	c-1.9,0-3.1,0.7-3.6,2l-0.3,1.1L12,196 M10,229.3V196l0.2-2c0.6-2.7,2.5-4,5.8-4h178c3.3,0,5.2,1.3,5.8,4l0.2,2v33.3
	c-0.1,3.8-2.1,5.8-6,5.8H16C12.1,235,10.1,233.1,10,229.3"/>
<path class="st15" d="M10,229.3c0.1,3.8,2.1,5.8,6,5.8h178c3.9,0,5.9-1.9,6-5.8v3.8c0,3.6-1.7,5.6-4.9,5.9L194,239H16l-1.1-0.1
	c-3.3-0.3-4.9-2.3-4.9-5.9V229.3"/>
<path class="st16" d="M12.1,255c0.3-2,1.6-3,3.9-3h178c2.3,0,3.7,1,3.9,3l0.1,1v33c0,2.7-1.3,4-4,4H16c-2.7,0-4-1.3-4-4v-33
	L12.1,255 M14.1,255.3l0,0.2L14,256v33c0,1.3,0.7,2,2,2h178c1.3,0,2-0.7,2-2v-33l-0.1-0.7l0.1,0.1c-0.2-0.9-0.9-1.4-2-1.4H16
	C14.9,254,14.3,254.4,14.1,255.3"/>
<linearGradient id="SVGID_5_" gradientUnits="userSpaceOnUse" x1="8395.2656" y1="-44771.1875" x2="10033.666" y2="-44771.1875" gradientTransform="matrix(0 2.502441e-002 2.258301e-002 0 1116.0681 41.9134)">
	<stop  offset="0" style="stop-color:#35BAF3"/>
	<stop  offset="1" style="stop-color:#1EA7E1"/>
</linearGradient>
<path class="st17" d="M14.1,255.3c0.2-0.9,0.8-1.3,1.9-1.3h178c1.1,0,1.8,0.4,2,1.4l-0.1-0.1l0.1,0.7v33c0,1.3-0.7,2-2,2H16
	c-1.3,0-2-0.7-2-2v-33l0.1-0.5L14.1,255.3"/>
<path class="st18" d="M12.1,255l-0.1,1v33c0,2.7,1.3,4,4,4h178c2.7,0,4-1.3,4-4v-33l-0.1-1c-0.3-2-1.6-3-3.9-3H16
	C13.7,252,12.4,253,12.1,255 M10,289.3V256c0-4,2-6,6-6h178c4,0,6,2,6,6v33.3c-0.1,3.8-2.1,5.8-6,5.8H16
	C12.1,295,10.1,293.1,10,289.3"/>
<path class="st19" d="M10,289.3c0.1,3.8,2.1,5.8,6,5.8h178c3.9,0,5.9-1.9,6-5.8v3.8c0,4-2,6-6,6H16c-4,0-6-2-6-6V289.3"/>
<path class="st0" d="M406,20l-0.1-0.7l0.1,0.1c-0.2-0.9-0.9-1.4-2-1.4H226c-1.1,0-1.7,0.4-1.9,1.3l0,0.2L224,20v33c0,1.3,0.7,2,2,2
	h178c1.3,0,2-0.7,2-2V20 M404,16c2.3,0,3.7,1,3.9,3l0.1,1v33c0,2.7-1.3,4-4,4H226c-2.7,0-4-1.3-4-4V20l0.1-1c0.3-2,1.6-3,3.9-3H404"
	/>
<path class="st2" d="M404,16H226c-2.3,0-3.6,1-3.9,3l-0.1,1v33c0,2.7,1.3,4,4,4h178c2.7,0,4-1.3,4-4V20l-0.1-1
	C407.7,17,406.3,16,404,16 M410,20v33.3c-0.1,3.8-2.1,5.8-6,5.8H226c-3.9,0-5.9-1.9-6-5.8V20c0-4,2-6,6-6h178C408,14,410,16,410,20"
	/>
<linearGradient id="SVGID_6_" gradientUnits="userSpaceOnUse" x1="8395.2656" y1="-44771.1875" x2="10033.666" y2="-44771.1875" gradientTransform="matrix(0 2.502441e-002 2.258301e-002 0 1326.0681 -194.0866)">
	<stop  offset="0" style="stop-color:#FFFFFF"/>
	<stop  offset="1" style="stop-color:#EEEEEE"/>
</linearGradient>
<path class="st20" d="M406,20v33c0,1.3-0.7,2-2,2H226c-1.3,0-2-0.7-2-2V20l0.1-0.5l0-0.2c0.2-0.9,0.8-1.3,1.9-1.3h178
	c1.1,0,1.8,0.4,2,1.4l-0.1-0.1L406,20"/>
<path class="st4" d="M406,80l-0.1-0.7l0.1,0c-0.2-0.9-0.9-1.3-2-1.3H226c-1.1,0-1.7,0.4-1.9,1.3l0,0.2L224,80v33c0,1.3,0.7,2,2,2
	h178c1.3,0,2-0.7,2-2V80 M407.9,79.1L408,80v33c0,2.7-1.3,4-4,4H226c-2.7,0-4-1.3-4-4V80l0.1-0.9c0.3-2,1.6-3.1,3.9-3.1h178
	C406.3,76,407.7,77,407.9,79.1"/>
<path class="st6" d="M407.9,79.1c-0.3-2-1.6-3.1-3.9-3.1H226c-2.3,0-3.6,1-3.9,3.1L222,80v33c0,2.7,1.3,4,4,4h178c2.7,0,4-1.3,4-4
	V80L407.9,79.1 M410,80v33.3c-0.1,3.8-2.1,5.8-6,5.8H226c-3.9,0-5.9-1.9-6-5.8V80c0-4,2-6,6-6h178C408,74,410,76,410,80"/>
<linearGradient id="SVGID_7_" gradientUnits="userSpaceOnUse" x1="8395.2656" y1="-44771.1875" x2="10033.666" y2="-44771.1875" gradientTransform="matrix(0 2.502441e-002 2.258301e-002 0 1326.0681 -134.0866)">
	<stop  offset="0" style="stop-color:#FFD948"/>
	<stop  offset="1" style="stop-color:#FFCC00"/>
</linearGradient>
<path class="st21" d="M406,80v33c0,1.3-0.7,2-2,2H226c-1.3,0-2-0.7-2-2V80l0.1-0.5l0-0.2c0.2-0.9,0.8-1.3,1.9-1.3h178
	c1.1,0,1.8,0.5,2,1.3l-0.1,0L406,80"/>
<path class="st8" d="M406,140l-0.1-0.7l0.1,0.1c-0.2-0.9-0.9-1.4-2-1.4H226c-1.1,0-1.7,0.4-1.9,1.3l0,0.2L224,140v33
	c0,1.3,0.7,2,2,2h178c1.3,0,2-0.7,2-2V140 M407.9,139.1l0.1,0.9v33c0,2.7-1.3,4-4,4H226c-2.7,0-4-1.3-4-4v-33l0.1-0.9
	c0.3-2,1.6-3.1,3.9-3.1h178C406.3,136,407.7,137,407.9,139.1"/>
<linearGradient id="SVGID_8_" gradientUnits="userSpaceOnUse" x1="8395.2656" y1="-44771.1875" x2="10033.666" y2="-44771.1875" gradientTransform="matrix(0 2.502441e-002 2.258301e-002 0 1326.0681 -74.0866)">
	<stop  offset="0" style="stop-color:#88E060"/>
	<stop  offset="1" style="stop-color:#73CD4B"/>
</linearGradient>
<path class="st22" d="M406,140v33c0,1.3-0.7,2-2,2H226c-1.3,0-2-0.7-2-2v-33l0.1-0.5l0-0.2c0.2-0.9,0.8-1.3,1.9-1.3h178
	c1.1,0,1.8,0.4,2,1.4l-0.1-0.1L406,140"/>
<path class="st10" d="M407.9,139.1c-0.3-2-1.6-3.1-3.9-3.1H226c-2.3,0-3.6,1-3.9,3.1L222,140v33c0,2.7,1.3,4,4,4h178
	c2.7,0,4-1.3,4-4v-33L407.9,139.1 M404,179H226c-3.9,0-5.9-1.9-6-5.8V140c0-4,2-6,6-6h178c4,0,6,2,6,6v33.3
	C409.9,177.1,407.9,179,404,179"/>
<path class="st14" d="M410,200v33.3c-0.1,3.8-2.1,5.8-6,5.8H226c-3.9,0-5.9-1.9-6-5.8V200l0.2-2c0.6-2.7,2.5-4,5.8-4h178
	c3.3,0,5.2,1.3,5.8,4L410,200 M407.7,198c-0.6-1.3-1.8-2-3.7-2H226c-1.9,0-3.1,0.7-3.6,2l-0.3,1.1L222,200v33c0,2.7,1.3,4,4,4h178
	c2.7,0,4-1.3,4-4v-33l-0.1-0.9L407.7,198"/>
<path class="st12" d="M407.7,198l0.3,1.1l0.1,0.9v33c0,2.7-1.3,4-4,4H226c-2.7,0-4-1.3-4-4v-33l0.1-0.9l0.3-1.1c0.5-1.3,1.7-2,3.6-2
	h178C405.9,196,407.1,196.7,407.7,198 M405.9,199.3L405.9,199.3l-0.1-0.5c-0.3-0.5-0.9-0.8-1.8-0.8H226c-0.9,0-1.4,0.2-1.7,0.7
	l-0.1,0.1l-0.2,0.6l0,0.1L224,200v33c0,1.3,0.7,2,2,2h178c1.3,0,2-0.7,2-2v-33L405.9,199.3"/>
<linearGradient id="SVGID_9_" gradientUnits="userSpaceOnUse" x1="8395.2656" y1="-44771.1875" x2="10033.666" y2="-44771.1875" gradientTransform="matrix(0 2.502441e-002 2.258301e-002 0 1326.0681 -14.0866)">
	<stop  offset="0" style="stop-color:#FA8132"/>
	<stop  offset="1" style="stop-color:#E86A17"/>
</linearGradient>
<path class="st23" d="M405.9,199.3l0.1,0.7v33c0,1.3-0.7,2-2,2H226c-1.3,0-2-0.7-2-2v-33l0.1-0.5l0-0.1l0.2-0.6l0.1-0.1
	c0.3-0.5,0.8-0.7,1.7-0.7h178c0.9,0,1.5,0.3,1.8,0.8L405.9,199.3L405.9,199.3"/>
<path class="st16" d="M406,260l-0.1-0.7l0.1,0.1c-0.2-0.9-0.9-1.4-2-1.4H226c-1.1,0-1.7,0.4-1.9,1.3l0,0.2L224,260v33
	c0,1.3,0.7,2,2,2h178c1.3,0,2-0.7,2-2V260 M404,256c2.3,0,3.7,1,3.9,3l0.1,1v33c0,2.7-1.3,4-4,4H226c-2.7,0-4-1.3-4-4v-33l0.1-1
	c0.3-2,1.6-3,3.9-3H404"/>
<path class="st18" d="M404,256H226c-2.3,0-3.6,1-3.9,3l-0.1,1v33c0,2.7,1.3,4,4,4h178c2.7,0,4-1.3,4-4v-33l-0.1-1
	C407.7,257,406.3,256,404,256 M410,260v33.3c-0.1,3.8-2.1,5.8-6,5.8H226c-3.9,0-5.9-1.9-6-5.8V260c0-4,2-6,6-6h178
	C408,254,410,256,410,260"/>
<linearGradient id="SVGID_10_" gradientUnits="userSpaceOnUse" x1="8395.2656" y1="-44771.1875" x2="10033.666" y2="-44771.1875" gradientTransform="matrix(0 2.502441e-002 2.258301e-002 0 1326.0681 45.9134)">
	<stop  offset="0" style="stop-color:#35BAF3"/>
	<stop  offset="1" style="stop-color:#1EA7E1"/>
</linearGradient>
<path class="st24" d="M406,260v33c0,1.3-0.7,2-2,2H226c-1.3,0-2-0.7-2-2v-33l0.1-0.5l0-0.2c0.2-0.9,0.8-1.3,1.9-1.3h178
	c1.1,0,1.8,0.4,2,1.4l-0.1-0.1L406,260"/>
<path class="st0" d="M467,15l0,1v33c0,2.7-1.3,4-4,4h-37c-2.7,0-4-1.3-4-4V16l0.1-1c0.3-2,1.6-3,3.9-3h37C465.3,12,466.6,13,467,15
	 M465,15.3L465,15.3c-0.2-0.9-0.8-1.3-2-1.3h-37c-1.1,0-1.7,0.4-1.9,1.3l0,0.2l0,0.5v33c0,1.3,0.7,2,2,2h37c1.3,0,2-0.7,2-2V16
	L465,15.3"/>
<linearGradient id="SVGID_11_" gradientUnits="userSpaceOnUse" x1="-9187.5635" y1="-7575.0786" x2="-7549.1636" y2="-7575.0786" gradientTransform="matrix(0 2.502441e-002 2.258301e-002 0 615.5681 241.9134)">
	<stop  offset="0" style="stop-color:#FFFFFF"/>
	<stop  offset="1" style="stop-color:#EEEEEE"/>
</linearGradient>
<path class="st25" d="M465,15.3l0,0.7v33c0,1.3-0.7,2-2,2h-37c-1.3,0-2-0.7-2-2V16l0-0.5l0-0.2c0.2-0.9,0.8-1.3,1.9-1.3h37
	C464.1,14,464.8,14.4,465,15.3L465,15.3"/>
<path class="st2" d="M467,15c-0.3-2-1.6-3-4-3h-37c-2.3,0-3.6,1-3.9,3l-0.1,1v33c0,2.7,1.3,4,4,4h37c2.7,0,4-1.3,4-4V16L467,15
	 M420,49.3V16c0-4,2-6,6-6h37c4,0,6,2,6,6v33.3c-0.1,3.8-2.1,5.8-6,5.8h-37C422.1,55,420.1,53.1,420,49.3"/>
<path class="st3" d="M420,49.3c0.1,3.8,2.1,5.8,6,5.8h37c3.9,0,5.9-1.9,6-5.8V53c0,4-2,6-6,6h-37c-4,0-6-2-6-6V49.3"/>
<path class="st4" d="M467,75l0,1v33c0,2.7-1.3,4-4,4h-37c-2.7,0-4-1.3-4-4V76l0.1-1c0.3-2,1.6-3,3.9-3h37C465.3,72,466.6,73,467,75
	 M465,75.3L465,75.3c-0.2-0.8-0.8-1.3-2-1.3h-37c-1.1,0-1.7,0.4-1.9,1.3l0,0.2l0,0.5v33c0,1.3,0.7,2,2,2h37c1.3,0,2-0.7,2-2V76
	L465,75.3"/>
<linearGradient id="SVGID_12_" gradientUnits="userSpaceOnUse" x1="-9187.5635" y1="-7575.0786" x2="-7549.1636" y2="-7575.0786" gradientTransform="matrix(0 2.502441e-002 2.258301e-002 0 615.5681 301.9134)">
	<stop  offset="0" style="stop-color:#FFD948"/>
	<stop  offset="1" style="stop-color:#FFCC00"/>
</linearGradient>
<path class="st26" d="M465,75.3l0,0.7v33c0,1.3-0.7,2-2,2h-37c-1.3,0-2-0.7-2-2V76l0-0.5l0-0.2c0.2-0.9,0.8-1.3,1.9-1.3h37
	C464.1,74,464.8,74.5,465,75.3L465,75.3"/>
<path class="st6" d="M467,75c-0.3-2-1.6-3-4-3h-37c-2.3,0-3.6,1-3.9,3l-0.1,1v33c0,2.7,1.3,4,4,4h37c2.7,0,4-1.3,4-4V76L467,75
	 M420,109.3V76c0-4,2-6,6-6h37c4,0,6,2,6,6v33.3c-0.1,3.8-2.1,5.8-6,5.8h-37C422.1,115,420.1,113.1,420,109.3"/>
<path class="st7" d="M420,109.3c0.1,3.8,2.1,5.8,6,5.8h37c3.9,0,5.9-1.9,6-5.8v3.8c0,4-2,6-6,6h-37c-4,0-6-2-6-6V109.3"/>
<path class="st8" d="M467,135l0,1v33c0,2.7-1.3,4-4,4h-37c-2.7,0-4-1.3-4-4v-33l0.1-1c0.3-2,1.6-3,3.9-3h37
	C465.3,132,466.6,133,467,135 M465,135.3L465,135.3c-0.2-0.8-0.8-1.3-2-1.3h-37c-1.1,0-1.7,0.4-1.9,1.3l0,0.2l0,0.5v33
	c0,1.3,0.7,2,2,2h37c1.3,0,2-0.7,2-2v-33L465,135.3"/>
<linearGradient id="SVGID_13_" gradientUnits="userSpaceOnUse" x1="-9187.5635" y1="-7575.0786" x2="-7549.1636" y2="-7575.0786" gradientTransform="matrix(0 2.502441e-002 2.258301e-002 0 615.5681 361.9134)">
	<stop  offset="0" style="stop-color:#88E060"/>
	<stop  offset="1" style="stop-color:#73CD4B"/>
</linearGradient>
<path class="st27" d="M465,135.3l0,0.7v33c0,1.3-0.7,2-2,2h-37c-1.3,0-2-0.7-2-2v-33l0-0.5l0-0.2c0.2-0.9,0.8-1.3,1.9-1.3h37
	C464.1,134,464.8,134.5,465,135.3L465,135.3"/>
<path class="st10" d="M467,135c-0.3-2-1.6-3-4-3h-37c-2.3,0-3.6,1-3.9,3l-0.1,1v33c0,2.7,1.3,4,4,4h37c2.7,0,4-1.3,4-4v-33L467,135
	 M420,169.3V136c0-4,2-6,6-6h37c4,0,6,2,6,6v33.3c-0.1,3.8-2.1,5.8-6,5.8h-37C422.1,175,420.1,173.1,420,169.3"/>
<path class="st11" d="M420,169.3c0.1,3.8,2.1,5.8,6,5.8h37c3.9,0,5.9-1.9,6-5.8v3.8c0,4-2,6-6,6h-37c-4,0-6-2-6-6V169.3"/>
<path class="st12" d="M466.7,194l0.3,1l0,1v33c0,2.7-1.3,4-4,4h-37c-2.7,0-4-1.3-4-4v-33l0.1-1l0.3-1c0.5-1.3,1.7-2,3.6-2h37
	C464.9,192,466.1,192.7,466.7,194 M464.8,194.8c-0.3-0.5-1-0.8-1.8-0.8h-37c-0.9,0-1.4,0.2-1.7,0.7l0,0.1l-0.2,0.6l0,0.1l0,0.5v33
	c0,1.3,0.7,2,2,2h37c1.3,0,2-0.7,2-2v-33l0-0.7l0,0.1L464.8,194.8"/>
<path class="st14" d="M466.7,194c-0.6-1.3-1.8-2-3.7-2h-37c-1.9,0-3.1,0.7-3.6,2l-0.3,1l-0.1,1v33c0,2.7,1.3,4,4,4h37
	c2.7,0,4-1.3,4-4v-33l0-1L466.7,194 M420,229.3V196l0.2-2c0.6-2.7,2.5-4,5.8-4h37c3.3,0,5.2,1.3,5.8,4l0.2,2v33.3
	c-0.1,3.8-2.1,5.8-6,5.8h-37C422.1,235,420.1,233.1,420,229.3"/>
<linearGradient id="SVGID_14_" gradientUnits="userSpaceOnUse" x1="-9187.5635" y1="-7575.0786" x2="-7549.1636" y2="-7575.0786" gradientTransform="matrix(0 2.502441e-002 2.258301e-002 0 615.5681 421.9134)">
	<stop  offset="0" style="stop-color:#FA8132"/>
	<stop  offset="1" style="stop-color:#E86A17"/>
</linearGradient>
<path class="st28" d="M464.8,194.8l0.2,0.6l0-0.1l0,0.7v33c0,1.3-0.7,2-2,2h-37c-1.3,0-2-0.7-2-2v-33l0-0.5l0-0.1l0.2-0.6l0-0.1
	c0.3-0.5,0.8-0.7,1.7-0.7h37C463.9,194,464.5,194.3,464.8,194.8"/>
<path class="st15" d="M469,229.3v3.8c0,3.6-1.6,5.6-5,6l-1,0h-37l-1,0c-3.3-0.3-5-2.3-5-6v-3.8c0.1,3.8,2.1,5.8,6,5.8h37
	C466.9,235,468.9,233.1,469,229.3"/>
<path class="st18" d="M420,289.3V256c0-4,2-6,6-6h37c4,0,6,2,6,6v33.3c-0.1,3.8-2.1,5.8-6,5.8h-37C422.1,295,420.1,293.1,420,289.3
	 M467,256l0-1c-0.3-2-1.6-3-4-3h-37c-2.3,0-3.6,1-3.9,3l-0.1,1v33c0,2.7,1.3,4,4,4h37c2.7,0,4-1.3,4-4V256"/>
<path class="st16" d="M467,256v33c0,2.7-1.3,4-4,4h-37c-2.7,0-4-1.3-4-4v-33l0.1-1c0.3-2,1.6-3,3.9-3h37c2.3,0,3.6,1,4,3L467,256
	 M465,256l0-0.7l0,0c-0.2-0.9-0.9-1.3-2-1.3h-37c-1.1,0-1.7,0.4-1.9,1.3l0,0.2l0,0.5v33c0,1.3,0.7,2,2,2h37c1.3,0,2-0.7,2-2V256"/>
<linearGradient id="SVGID_15_" gradientUnits="userSpaceOnUse" x1="-9177.8115" y1="-7608.7061" x2="-7539.4116" y2="-7608.7061" gradientTransform="matrix(-7.629395e-005 2.499390e-002 2.256775e-002 6.103516e-005 615.5737 481.8787)">
	<stop  offset="0" style="stop-color:#35BAF3"/>
	<stop  offset="1" style="stop-color:#1EA7E1"/>
</linearGradient>
<path class="st29" d="M465,256v33c0,1.3-0.7,2-2,2h-37c-1.3,0-2-0.7-2-2v-33l0-0.5l0-0.2c0.2-0.9,0.8-1.3,1.9-1.3h37
	c1.1,0,1.8,0.5,2,1.3l0,0L465,256"/>
<path class="st19" d="M469,289.3v3.8c0,4-2,6-6,6h-37c-4,0-6-2-6-6v-3.8c0.1,3.8,2.1,5.8,6,5.8h37C466.9,295,468.9,293.1,469,289.3"
	/>
<path class="st18" d="M482,260v33c0,2.7,1.3,4,4,4h37c2.7,0,4-1.3,4-4v-33l0-1c-0.3-2-1.6-3-4-3h-37c-2.3,0-3.6,1-3.9,3L482,260
	 M486,254h37c4,0,6,2,6,6v33.3c-0.1,3.8-2.1,5.8-6,5.8h-37c-3.9,0-5.9-1.9-6-5.8V260C480,256,482,254,486,254"/>
<path class="st16" d="M484,259.5l0,0.5v33c0,1.3,0.7,2,2,2h37c1.3,0,2-0.7,2-2v-33l0-0.7l0,0c-0.2-0.9-0.9-1.3-2-1.3h-37
	c-1.1,0-1.7,0.4-1.9,1.3L484,259.5 M482,260l0.1-1c0.3-2,1.6-3,3.9-3h37c2.3,0,3.6,1,4,3l0,1v33c0,2.7-1.3,4-4,4h-37
	c-2.7,0-4-1.3-4-4V260"/>
<linearGradient id="SVGID_16_" gradientUnits="userSpaceOnUse" x1="-9177.8115" y1="-7608.7061" x2="-7539.4116" y2="-7608.7061" gradientTransform="matrix(-7.629395e-005 2.499390e-002 2.256775e-002 6.103516e-005 675.5737 485.8787)">
	<stop  offset="0" style="stop-color:#35BAF3"/>
	<stop  offset="1" style="stop-color:#1EA7E1"/>
</linearGradient>
<path class="st30" d="M484,259.5l0-0.2c0.2-0.9,0.8-1.3,1.9-1.3h37c1.1,0,1.8,0.5,2,1.3l0,0l0,0.7v33c0,1.3-0.7,2-2,2h-37
	c-1.3,0-2-0.7-2-2v-33L484,259.5"/>
<path class="st12" d="M526.7,198l0.3,1l0,1v33c0,2.7-1.3,4-4,4h-37c-2.7,0-4-1.3-4-4v-33l0.1-1l0.3-1c0.5-1.3,1.7-2,3.6-2h37
	C524.9,196,526.1,196.7,526.7,198 M525,199.3l0,0.1l-0.2-0.6c-0.3-0.5-1-0.8-1.8-0.8h-37c-0.9,0-1.4,0.2-1.7,0.7l0,0.1l-0.2,0.6
	l0,0.1l0,0.5v33c0,1.3,0.7,2,2,2h37c1.3,0,2-0.7,2-2v-33L525,199.3"/>
<path class="st14" d="M526.7,198c-0.6-1.3-1.8-2-3.7-2h-37c-1.9,0-3.1,0.7-3.6,2l-0.3,1l-0.1,1v33c0,2.7,1.3,4,4,4h37
	c2.7,0,4-1.3,4-4v-33l0-1L526.7,198 M528.8,198l0.2,2v33.3c-0.1,3.8-2.1,5.8-6,5.8h-37c-3.9,0-5.9-1.9-6-5.8V200l0.2-2
	c0.6-2.7,2.5-4,5.8-4h37C526.3,194,528.2,195.3,528.8,198"/>
<linearGradient id="SVGID_17_" gradientUnits="userSpaceOnUse" x1="-9187.5635" y1="-7575.0786" x2="-7549.1636" y2="-7575.0786" gradientTransform="matrix(0 2.502441e-002 2.258301e-002 0 675.5681 425.9134)">
	<stop  offset="0" style="stop-color:#FA8132"/>
	<stop  offset="1" style="stop-color:#E86A17"/>
</linearGradient>
<path class="st31" d="M525,199.3l0,0.7v33c0,1.3-0.7,2-2,2h-37c-1.3,0-2-0.7-2-2v-33l0-0.5l0-0.1l0.2-0.6l0-0.1
	c0.3-0.5,0.8-0.7,1.7-0.7h37c0.9,0,1.5,0.3,1.8,0.8l0.2,0.6L525,199.3"/>
<path class="st8" d="M484.1,139.3l0,0.2l0,0.5v33c0,1.3,0.7,2,2,2h37c1.3,0,2-0.7,2-2v-33l0-0.7l0,0c-0.2-0.9-0.9-1.3-2-1.3h-37
	C484.9,138,484.3,138.4,484.1,139.3 M482.1,139c0.3-2,1.6-3,3.9-3h37c2.3,0,3.6,1,4,3l0,1v33c0,2.7-1.3,4-4,4h-37c-2.7,0-4-1.3-4-4
	v-33L482.1,139"/>
<path class="st10" d="M482.1,139l-0.1,1v33c0,2.7,1.3,4,4,4h37c2.7,0,4-1.3,4-4v-33l0-1c-0.3-2-1.6-3-4-3h-37
	C483.7,136,482.4,137,482.1,139 M486,134h37c4,0,6,2,6,6v33.3c-0.1,3.8-2.1,5.8-6,5.8h-37c-3.9,0-5.9-1.9-6-5.8V140
	C480,136,482,134,486,134"/>
<linearGradient id="SVGID_18_" gradientUnits="userSpaceOnUse" x1="-9187.5635" y1="-7575.0786" x2="-7549.1636" y2="-7575.0786" gradientTransform="matrix(0 2.502441e-002 2.258301e-002 0 675.5681 365.9134)">
	<stop  offset="0" style="stop-color:#88E060"/>
	<stop  offset="1" style="stop-color:#73CD4B"/>
</linearGradient>
<path class="st32" d="M484.1,139.3c0.2-0.9,0.8-1.3,1.9-1.3h37c1.1,0,1.8,0.5,2,1.3l0,0l0,0.7v33c0,1.3-0.7,2-2,2h-37
	c-1.3,0-2-0.7-2-2v-33l0-0.5L484.1,139.3"/>
<path class="st4" d="M484.1,79.3l0,0.2l0,0.5v33c0,1.3,0.7,2,2,2h37c1.3,0,2-0.7,2-2V80l0-0.7l0,0c-0.2-0.9-0.9-1.3-2-1.3h-37
	C484.9,78,484.3,78.4,484.1,79.3 M482.1,79c0.3-2,1.6-3,3.9-3h37c2.3,0,3.6,1,4,3l0,1v33c0,2.7-1.3,4-4,4h-37c-2.7,0-4-1.3-4-4V80
	L482.1,79"/>
<path class="st6" d="M482.1,79l-0.1,1v33c0,2.7,1.3,4,4,4h37c2.7,0,4-1.3,4-4V80l0-1c-0.3-2-1.6-3-4-3h-37
	C483.7,76,482.4,77,482.1,79 M486,74h37c4,0,6,2,6,6v33.3c-0.1,3.8-2.1,5.8-6,5.8h-37c-3.9,0-5.9-1.9-6-5.8V80C480,76,482,74,486,74
	"/>
<linearGradient id="SVGID_19_" gradientUnits="userSpaceOnUse" x1="-9187.5635" y1="-7575.0786" x2="-7549.1636" y2="-7575.0786" gradientTransform="matrix(0 2.502441e-002 2.258301e-002 0 675.5681 305.9134)">
	<stop  offset="0" style="stop-color:#FFD948"/>
	<stop  offset="1" style="stop-color:#FFCC00"/>
</linearGradient>
<path class="st33" d="M484.1,79.3c0.2-0.9,0.8-1.3,1.9-1.3h37c1.1,0,1.8,0.5,2,1.3l0,0l0,0.7v33c0,1.3-0.7,2-2,2h-37
	c-1.3,0-2-0.7-2-2V80l0-0.5L484.1,79.3"/>
<path class="st0" d="M525,19.3L525,19.3c-0.2-0.9-0.8-1.3-2-1.3h-37c-1.1,0-1.7,0.4-1.9,1.3l0,0.2l0,0.5v33c0,1.3,0.7,2,2,2h37
	c1.3,0,2-0.7,2-2V20L525,19.3 M527,19l0,1v33c0,2.7-1.3,4-4,4h-37c-2.7,0-4-1.3-4-4V20l0.1-1c0.3-2,1.6-3,3.9-3h37
	C525.3,16,526.6,17,527,19"/>
<path class="st2" d="M527,19c-0.3-2-1.6-3-4-3h-37c-2.3,0-3.6,1-3.9,3l-0.1,1v33c0,2.7,1.3,4,4,4h37c2.7,0,4-1.3,4-4V20L527,19
	 M529,20v33.3c-0.1,3.8-2.1,5.8-6,5.8h-37c-3.9,0-5.9-1.9-6-5.8V20c0-4,2-6,6-6h37C527,14,529,16,529,20"/>
<linearGradient id="SVGID_20_" gradientUnits="userSpaceOnUse" x1="-9187.5635" y1="-7575.0786" x2="-7549.1636" y2="-7575.0786" gradientTransform="matrix(0 2.502441e-002 2.258301e-002 0 675.5681 245.9134)">
	<stop  offset="0" style="stop-color:#FFFFFF"/>
	<stop  offset="1" style="stop-color:#EEEEEE"/>
</linearGradient>
<path class="st34" d="M525,19.3l0,0.7v33c0,1.3-0.7,2-2,2h-37c-1.3,0-2-0.7-2-2V20l0-0.5l0-0.2c0.2-0.9,0.8-1.3,1.9-1.3h37
	C524.1,18,524.8,18.4,525,19.3L525,19.3"/>
</svg>
